<svg width="29" height="27" viewBox="0 0 29 27" fill="none" xmlns="http://www.w3.org/2000/svg">
<path d="M17.7343 25.9946C17.7387 25.9566 17.741 25.9178 17.741 25.8787V16.584H21.2485C21.8109 16.584 22.3171 16.2485 22.3993 15.7446C22.5352 14.9109 22.4775 14.1529 22.3895 13.6138C22.3088 13.119 21.822 12.7932 21.2698 12.7932H17.741C17.741 9.92882 18.2672 9.51202 21.2333 9.45988C21.8024 9.4499 22.3133 9.10951 22.3959 8.59933C22.5347 7.74176 22.4794 6.99249 22.3923 6.46538C22.3118 5.97849 21.8298 5.6611 21.2864 5.6654C16.0441 5.70682 13.0583 6.26829 13.0583 12.7932H10.3425C9.81467 12.7932 9.34607 13.0929 9.26622 13.5655C9.18022 14.0747 9.12823 14.8128 9.27179 15.7105C9.35474 16.2291 9.8697 16.584 10.4482 16.584H13.0583V26.0226C8.99924 25.9984 6.09385 25.8533 4.20203 25.7141C2.12001 25.5609 0.513575 24.1056 0.344416 22.2197C0.176093 20.343 0 17.3651 0 13.1195C0 8.87387 0.176093 5.896 0.344416 4.01933C0.513575 2.13333 2.12001 0.678143 4.20203 0.52491C6.27375 0.372429 9.56112 0.212921 14.248 0.212921C18.9349 0.212921 22.2223 0.372435 24.294 0.52491C26.376 0.678143 27.9825 2.13333 28.1516 4.01933C28.3199 5.896 28.496 8.87387 28.496 13.1195C28.496 17.3651 28.3199 20.343 28.1516 22.2197C27.9825 24.1057 26.376 25.5609 24.294 25.7141C22.7803 25.8255 20.6176 25.9407 17.7343 25.9946Z" fill="#187B5D"/>
</svg>
