<svg width="29" height="27" viewBox="0 0 29 27" fill="none" xmlns="http://www.w3.org/2000/svg">
<path d="M28.2435 11.4784C28.4131 12.3445 28.4976 13.2221 28.496 14.1012C28.496 18.0274 26.9153 21.3471 24.1646 23.594H24.1682C21.7626 25.5668 18.4559 26.7089 14.5351 26.7089C10.6801 26.7089 6.98308 25.3493 4.25723 22.9292C1.53137 20.5092 0 17.2269 0 13.8044C0 10.3819 1.53137 7.09965 4.25723 4.67959C6.98308 2.25954 10.6801 0.899971 14.5351 0.899971C18.1429 0.8643 21.6268 2.06753 24.259 4.25835L20.1093 7.94257C18.6089 6.6735 16.6071 5.97838 14.5351 6.0069C10.7432 6.0069 7.5219 8.27808 6.37363 11.3364C5.76588 12.9392 5.76588 14.6745 6.37363 16.2772H6.37908C7.5328 19.3307 10.7487 21.6019 14.5405 21.6019C16.4991 21.6019 18.1816 21.1567 19.4861 20.3695H19.4806C20.2383 19.9242 20.8863 19.347 21.3856 18.6731C21.885 17.9991 22.2252 17.2422 22.3858 16.4482H14.5351V11.48L28.2435 11.4784Z" fill="#187B5D"/>
</svg>
