<svg width="86" height="87" viewBox="0 0 86 87" fill="none" xmlns="http://www.w3.org/2000/svg">
<path d="M34.2122 74.7706C40.4144 75.4276 45.8188 70.5654 45.8188 64.3285V55.8384C45.8188 55.0111 45.6773 54.19 45.4005 53.4105L42.1825 44.3481L26.3967 52.7362C22.8307 54.6311 20.7838 58.5118 21.2338 62.5248C21.9542 68.9509 27.0461 74.0116 33.4765 74.6927L34.2122 74.7706Z" fill="#116700"/>
<path d="M65.7766 73.5266C76.9457 73.5266 86 67.8876 86 60.9316V58.4554C86 54.7032 82.0029 51.4065 76.2084 50.3794L42.1825 44.3481L48.8878 66.6737C50.844 71.0533 55.6502 73.5266 62.1403 73.5266H65.7766Z" fill="#116700"/>
<path d="M55.7031 6.99189C51.2484 7.57941 47.7094 11.0247 47.0026 15.462L43.9102 34.8765C43.6429 36.5542 43.6705 38.2657 43.9915 39.934L45.3824 47.1607L72.0333 29.8371C74.8423 28.0112 76.4137 24.7836 76.1185 21.4464C75.3011 12.2055 66.9472 5.50891 57.7499 6.72194L55.7031 6.99189Z" fill="#116700"/>
<path d="M20.9457 0C9.37771 0 0 9.11421 0 20.3571L0 24.3594C0 30.4239 4.13982 35.7523 10.1413 37.4124L45.3824 47.1607L38.4376 11.0762C37.2017 4.65455 31.4337 0 24.7118 0L20.9457 0Z" fill="#116700"/>
<g filter="url(#filter0_d_373_211)">
<mask id="path-3-inside-1_373_211" fill="white">
<path d="M44.9922 38.5618L46.627 39.8528C45.8477 40.533 45.4005 41.5167 45.4004 42.551V45.0833L50.2891 44.7454L50.9883 44.0706L52.9668 46.3196L50.9883 48.5676L50.0566 47.7815L45.4004 48.2307L44.7021 58.1243L38.998 62.1711L40.8066 55.2014L41.9082 47.8938H38.6338C37.8865 47.8939 37.158 48.1292 36.5527 48.5676L34.6904 46.3196L36.5527 44.2961C37.1657 44.5921 37.8379 44.7454 38.5186 44.7454H41.9082V42.4592C41.9082 41.4774 41.5106 40.5373 40.8066 39.8528L42.1406 38.6741L43.5381 37.3254L44.9922 38.5618Z"/>
</mask>
<path d="M44.9922 38.5618L46.627 39.8528C45.8477 40.533 45.4005 41.5167 45.4004 42.551V45.0833L50.2891 44.7454L50.9883 44.0706L52.9668 46.3196L50.9883 48.5676L50.0566 47.7815L45.4004 48.2307L44.7021 58.1243L38.998 62.1711L40.8066 55.2014L41.9082 47.8938H38.6338C37.8865 47.8939 37.158 48.1292 36.5527 48.5676L34.6904 46.3196L36.5527 44.2961C37.1657 44.5921 37.8379 44.7454 38.5186 44.7454H41.9082V42.4592C41.9082 41.4774 41.5106 40.5373 40.8066 39.8528L42.1406 38.6741L43.5381 37.3254L44.9922 38.5618Z" fill="#99D98C"/>
<path d="M44.9922 38.5618L44.3444 39.3236L44.3582 39.3353L44.3724 39.3466L44.9922 38.5618ZM46.627 39.8528L47.2845 40.6062L48.1918 39.8143L47.2467 39.068L46.627 39.8528ZM45.4004 42.551L44.4004 42.5509V42.551H45.4004ZM45.4004 45.0833H44.4004V46.1548L45.4693 46.0809L45.4004 45.0833ZM50.2891 44.7454L50.358 45.743L50.7214 45.7179L50.9835 45.4649L50.2891 44.7454ZM50.9883 44.0706L51.7391 43.41L51.0474 42.6238L50.2938 43.351L50.9883 44.0706ZM52.9668 46.3196L53.7175 46.9803L54.2988 46.3197L53.7176 45.6591L52.9668 46.3196ZM50.9883 48.5676L50.3434 49.3319L51.0919 49.9635L51.739 49.2283L50.9883 48.5676ZM50.0566 47.7815L50.7015 47.0172L50.3797 46.7457L49.9606 46.7861L50.0566 47.7815ZM45.4004 48.2307L45.3044 47.2353L44.4624 47.3166L44.4029 48.1603L45.4004 48.2307ZM44.7021 58.1243L45.2808 58.9399L45.6664 58.6663L45.6997 58.1947L44.7021 58.1243ZM38.998 62.1711L38.0301 61.92L37.3419 64.5723L39.5767 62.9867L38.998 62.1711ZM40.8066 55.2014L41.7746 55.4526L41.7877 55.4021L41.7955 55.3505L40.8066 55.2014ZM41.9082 47.8938L42.897 48.0429L43.0702 46.8938H41.9082V47.8938ZM38.6338 47.8938V46.8938H38.6337L38.6338 47.8938ZM36.5527 48.5676L35.7827 49.2056L36.3804 49.9272L37.1393 49.3775L36.5527 48.5676ZM34.6904 46.3196L33.9546 45.6424L33.3632 46.285L33.9203 46.9575L34.6904 46.3196ZM36.5527 44.2961L36.9876 43.3956L36.3194 43.073L35.8169 43.6189L36.5527 44.2961ZM41.9082 44.7454V45.7454H42.9082V44.7454H41.9082ZM40.8066 39.8528L40.1445 39.1034L39.3361 39.8177L40.1095 40.5697L40.8066 39.8528ZM42.1406 38.6741L42.8028 39.4234L42.8192 39.4089L42.835 39.3936L42.1406 38.6741ZM43.5381 37.3254L44.1858 36.5636L43.4956 35.9767L42.8437 36.6059L43.5381 37.3254ZM44.9922 38.5618L44.3724 39.3466L46.0072 40.6376L46.627 39.8528L47.2467 39.068L45.612 37.777L44.9922 38.5618ZM46.627 39.8528L45.9694 39.0994C44.9725 39.9695 44.4006 41.2278 44.4004 42.5509L45.4004 42.551L46.4004 42.5511C46.4005 41.8055 46.7228 41.0965 47.2845 40.6062L46.627 39.8528ZM45.4004 42.551H44.4004V45.0833H45.4004H46.4004V42.551H45.4004ZM45.4004 45.0833L45.4693 46.0809L50.358 45.743L50.2891 44.7454L50.2201 43.7477L45.3314 44.0856L45.4004 45.0833ZM50.2891 44.7454L50.9835 45.4649L51.6827 44.7901L50.9883 44.0706L50.2938 43.351L49.5946 44.0258L50.2891 44.7454ZM50.9883 44.0706L50.2375 44.7311L52.216 46.9801L52.9668 46.3196L53.7176 45.6591L51.7391 43.41L50.9883 44.0706ZM52.9668 46.3196L52.2161 45.6589L50.2376 47.907L50.9883 48.5676L51.739 49.2283L53.7175 46.9803L52.9668 46.3196ZM50.9883 48.5676L51.6332 47.8034L50.7015 47.0172L50.0566 47.7815L49.4117 48.5458L50.3434 49.3319L50.9883 48.5676ZM50.0566 47.7815L49.9606 46.7861L45.3044 47.2353L45.4004 48.2307L45.4964 49.2261L50.1527 48.7769L50.0566 47.7815ZM45.4004 48.2307L44.4029 48.1603L43.7046 58.0539L44.7021 58.1243L45.6997 58.1947L46.3979 48.3011L45.4004 48.2307ZM44.7021 58.1243L44.1235 57.3087L38.4194 61.3556L38.998 62.1711L39.5767 62.9867L45.2808 58.9399L44.7021 58.1243ZM38.998 62.1711L39.966 62.4223L41.7746 55.4526L40.8066 55.2014L39.8387 54.9502L38.0301 61.92L38.998 62.1711ZM40.8066 55.2014L41.7955 55.3505L42.897 48.0429L41.9082 47.8938L40.9194 47.7447L39.8178 55.0524L40.8066 55.2014ZM41.9082 47.8938V46.8938H38.6338V47.8938V48.8938H41.9082V47.8938ZM38.6338 47.8938L38.6337 46.8938C37.6764 46.8939 36.7425 47.1954 35.9661 47.7577L36.5527 48.5676L37.1393 49.3775C37.5734 49.0631 38.0965 48.8939 38.6339 48.8938L38.6338 47.8938ZM36.5527 48.5676L37.3228 47.9297L35.4605 45.6816L34.6904 46.3196L33.9203 46.9575L35.7827 49.2056L36.5527 48.5676ZM34.6904 46.3196L35.4262 46.9968L37.2885 44.9733L36.5527 44.2961L35.8169 43.6189L33.9546 45.6424L34.6904 46.3196ZM36.5527 44.2961L36.1179 45.1966C36.8669 45.5584 37.6879 45.7454 38.5186 45.7454V44.7454V43.7454C37.9879 43.7454 37.4644 43.6259 36.9876 43.3956L36.5527 44.2961ZM38.5186 44.7454V45.7454H41.9082V44.7454V43.7454H38.5186V44.7454ZM41.9082 44.7454H42.9082V42.4592H41.9082H40.9082V44.7454H41.9082ZM41.9082 42.4592H42.9082C42.9082 41.207 42.4011 40.0084 41.5038 39.1358L40.8066 39.8528L40.1095 40.5697C40.62 41.0662 40.9082 41.7478 40.9082 42.4592H41.9082ZM40.8066 39.8528L41.4688 40.6022L42.8028 39.4234L42.1406 38.6741L41.4785 37.9247L40.1445 39.1034L40.8066 39.8528ZM42.1406 38.6741L42.835 39.3936L44.2325 38.045L43.5381 37.3254L42.8437 36.6059L41.4462 37.9545L42.1406 38.6741ZM43.5381 37.3254L42.8903 38.0873L44.3444 39.3236L44.9922 38.5618L45.6399 37.7999L44.1858 36.5636L43.5381 37.3254Z" fill="#99D98C" mask="url(#path-3-inside-1_373_211)"/>
</g>
<defs>
<filter id="filter0_d_373_211" x="14.6904" y="21.3254" width="58.2764" height="64.8457" filterUnits="userSpaceOnUse" color-interpolation-filters="sRGB">
<feFlood flood-opacity="0" result="BackgroundImageFix"/>
<feColorMatrix in="SourceAlpha" type="matrix" values="0 0 0 0 0 0 0 0 0 0 0 0 0 0 0 0 0 0 127 0" result="hardAlpha"/>
<feOffset dy="4"/>
<feGaussianBlur stdDeviation="10"/>
<feComposite in2="hardAlpha" operator="out"/>
<feColorMatrix type="matrix" values="0 0 0 0 0 0 0 0 0 0 0 0 0 0 0 0 0 0 0.5 0"/>
<feBlend mode="normal" in2="BackgroundImageFix" result="effect1_dropShadow_373_211"/>
<feBlend mode="normal" in="SourceGraphic" in2="effect1_dropShadow_373_211" result="shape"/>
</filter>
</defs>
</svg>
